{
  "accessors": [
    {
      "bufferView": 2,
      "componentType": 5126,
      "count": 1736,
      "max": [
        0.8988391757011414,
        2.1219098567962646,
        1.3556756973266602
      ],
      "min": [
        -0.8988391757011414,
        -0.7714395523071289,
        0.3608679175376892
      ],
      "type": "VEC3"
    },
    {
      "bufferView": 2,
      "byteOffset": 20832,
      "componentType": 5126,
      "count": 1736,
      "max": [
        0.9998847246170044,
        0.8283474445343018,
        0.9996646046638489
      ],
      "min": [
        -0.9998847246170044,
        -0.6132252216339111,
        -0.055968914180994034
      ],
      "type": "VEC3"
    },
    {
      "bufferView": 1,
      "componentType": 5126,
      "count": 1736,
      "max": [
        0.0,
        0.0
      ],
      "min": [
        0.0,
        0.0
      ],
      "type": "VEC2"
    },
    {
      "bufferView": 0,
      "componentType": 5125,
      "count": 9216,
      "type": "SCALAR"
    },
    {
      "bufferView": 2,
      "byteOffset": 41664,
      "componentType": 5126,
      "count": 686,
      "max": [
        0.5376679301261902,
        1.1978529691696167,
        1.3875492811203003
      ],
      "min": [
        -0.5376679301261902,
        -0.2620331645011902,
        1.2754724025726318
      ],
      "type": "VEC3"
    },
    {
      "bufferView": 2,
      "byteOffset": 49896,
      "componentType": 5126,
      "count": 686,
      "max": [
        0.9881682395935059,
        0.9866626262664795,
        0.9999869465827942
      ],
      "min": [
        -0.9881683588027954,
        -0.5666524767875671,
        0.14612720906734467
      ],
      "type": "VEC3"
    },
    {
      "bufferView": 1,
      "byteOffset": 13888,
      "componentType": 5126,
      "count": 686,
      "max": [
        0.0,
        0.0
      ],
      "min": [
        0.0,
        0.0
      ],
      "type": "VEC2"
    },
    {
      "bufferView": 0,
      "byteOffset": 36864,
      "componentType": 5125,
      "count": 3744,
      "type": "SCALAR"
    },
    {
      "bufferView": 2,
      "byteOffset": 58128,
      "componentType": 5126,
      "count": 366,
      "max": [
        0.7373546957969666,
        1.3822163343429565,
        1.1517877578735352
      ],
      "min": [
        -0.7373546957969666,
        1.241938591003418,
        0.9544243216514587
      ],
      "type": "VEC3"
    },
    {
      "bufferView": 2,
      "byteOffset": 62520,
      "componentType": 5126,
      "count": 366,
      "max": [
        0.9742611050605774,
        0.9867572784423828,
        0.8482686281204224
      ],
      "min": [
        -0.9742609262466431,
        -0.5583990812301636,
        -0.9937170743942261
      ],
      "type": "VEC3"
    },
    {
      "bufferView": 1,
      "byteOffset": 19376,
      "componentType": 5126,
      "count": 366,
      "max": [
        0.0,
        0.0
      ],
      "min": [
        0.0,
        0.0
      ],
      "type": "VEC2"
    },
    {
      "bufferView": 0,
      "byteOffset": 51840,
      "componentType": 5125,
      "count": 1920,
      "type": "SCALAR"
    },
    {
      "bufferView": 2,
      "byteOffset": 66912,
      "componentType": 5126,
      "count": 2357,
      "max": [
        0.8892036080360413,
        -1.625464677810669,
        0.7208266258239746
      ],
      "min": [
        -0.8892036080360413,
        -2.2512283325195313,
        0.1679181009531021
      ],
      "type": "VEC3"
    },
    {
      "bufferView": 2,
      "byteOffset": 95196,
      "componentType": 5126,
      "count": 2357,
      "max": [
        0.9999986290931702,
        0.012492467649281025,
        0.999958872795105
      ],
      "min": [
        -0.9999986290931702,
        -0.9998599290847778,
        -0.999893069267273
      ],
      "type": "VEC3"
    },
    {
      "bufferView": 1,
      "byteOffset": 22304,
      "componentType": 5126,
      "count": 2357,
      "max": [
        1.0000001192092896,
        0.0
      ],
      "min": [
        0.0,
        0.0
      ],
      "type": "VEC2"
    },
    {
      "bufferView": 0,
      "byteOffset": 59520,
      "componentType": 5125,
      "count": 12360,
      "type": "SCALAR"
    },
    {
      "bufferView": 2,
      "byteOffset": 123480,
      "componentType": 5126,
      "count": 11649,
      "max": [
        0.8584613800048828,
        -1.8119674921035767,
        0.6723959445953369
      ],
      "min": [
        -0.8584613800048828,
        -2.2480990886688232,
        0.13928677141666412
      ],
      "type": "VEC3"
    },
    {
      "bufferView": 2,
      "byteOffset": 263268,
      "componentType": 5126,
      "count": 11649,
      "max": [
        0.9999991059303284,
        0.9999821782112122,
        1.0
      ],
      "min": [
        -0.9999991059303284,
        -0.9997420310974121,
        -1.0
      ],
      "type": "VEC3"
    },
    {
      "bufferView": 1,
      "byteOffset": 41160,
      "componentType": 5126,
      "count": 11649,
      "max": [
        0.5829750299453735,
        0.0
      ],
      "min": [
        0.0,
        0.0
      ],
      "type": "VEC2"
    },
    {
      "bufferView": 0,
      "byteOffset": 108960,
      "componentType": 5125,
      "count": 36000,
      "type": "SCALAR"
    },
    {
      "bufferView": 2,
      "byteOffset": 403056,
      "componentType": 5126,
      "count": 3145,
      "max": [
        0.8668344020843506,
        2.3326523303985596,
        0.5750695466995239
      ],
      "min": [
        -0.8668344020843506,
        1.658801555633545,
        0.21644726395606995
      ],
      "type": "VEC3"
    },
    {
      "bufferView": 2,
      "byteOffset": 440796,
      "componentType": 5126,
      "count": 3145,
      "max": [
        1.0,
        0.999905526638031,
        0.9969537854194641
      ],
      "min": [
        -1.0,
        -0.0009540178580209613,
        -1.0
      ],
      "type": "VEC3"
    },
    {
      "bufferView": 1,
      "byteOffset": 134352,
      "componentType": 5126,
      "count": 3145,
      "max": [
        0.0,
        0.0
      ],
      "min": [
        0.0,
        0.0
      ],
      "type": "VEC2"
    },
    {
      "bufferView": 0,
      "byteOffset": 252960,
      "componentType": 5125,
      "count": 17220,
      "type": "SCALAR"
    },
    {
      "bufferView": 2,
      "byteOffset": 478536,
      "componentType": 5126,
      "count": 2121,
      "max": [
        0.8946411609649658,
        2.297867774963379,
        0.7761818170547485
      ],
      "min": [
        -0.8946411609649658,
        1.5105657577514648,
        0.2875382602214813
      ],
      "type": "VEC3"
    },
    {
      "bufferView": 2,
      "byteOffset": 503988,
      "componentType": 5126,
      "count": 2121,
      "max": [
        1.0,
        0.9973806142807007,
        0.9841428995132446
      ],
      "min": [
        -1.0,
        -5.555897223530337e-05,
        -0.968756914138794
      ],
      "type": "VEC3"
    },
    {
      "bufferView": 1,
      "byteOffset": 159512,
      "componentType": 5126,
      "count": 2121,
      "max": [
        0.0,
        0.0
      ],
      "min": [
        0.0,
        0.0
      ],
      "type": "VEC2"
    },
    {
      "bufferView": 0,
      "byteOffset": 321840,
      "componentType": 5125,
      "count": 11652,
      "type": "SCALAR"
    },
    {
      "bufferView": 2,
      "byteOffset": 529440,
      "componentType": 5126,
      "count": 1841,
      "max": [
        0.8799270391464233,
        1.5178693532943726,
        0.559212327003479
      ],
      "min": [
        0.644426167011261,
        1.0588319301605225,
        0.10038019716739655
      ],
      "type": "VEC3"
    },
    {
      "bufferView": 2,
      "byteOffset": 551532,
      "componentType": 5126,
      "count": 1841,
      "max": [
        1.0,
        0.9955348372459412,
        0.9988877773284912
      ],
      "min": [
        -0.6808769106864929,
        -0.9955331683158875,
        -0.998887300491333
      ],
      "type": "VEC3"
    },
    {
      "bufferView": 1,
      "byteOffset": 176480,
      "componentType": 5126,
      "count": 1841,
      "max": [
        0.0,
        0.0
      ],
      "min": [
        0.0,
        0.0
      ],
      "type": "VEC2"
    },
    {
      "bufferView": 0,
      "byteOffset": 368448,
      "componentType": 5125,
      "count": 9540,
      "type": "SCALAR"
    },
    {
      "bufferView": 2,
      "byteOffset": 573624,
      "componentType": 5126,
      "count": 1237,
      "max": [
        0.869931161403656,
        1.2401442527770996,
        0.9540351629257202
      ],
      "min": [
        0.736443042755127,
        0.2224389612674713,
        0.28513452410697937
      ],
      "type": "VEC3"
    },
    {
      "bufferView": 2,
      "byteOffset": 588468,
      "componentType": 5126,
      "count": 1237,
      "max": [
        0.9998895525932312,
        0.9999315142631531,
        0.9998239278793335
      ],
      "min": [
        -0.9958823323249817,
        -0.9999839067459106,
        -0.9999299049377441
      ],
      "type": "VEC3"
    },
    {
      "bufferView": 1,
      "byteOffset": 191208,
      "componentType": 5126,
      "count": 1237,
      "max": [
        0.0,
        0.0
      ],
      "min": [
        0.0,
        0.0
      ],
      "type": "VEC2"
    },
    {
      "bufferView": 0,
      "byteOffset": 406608,
      "componentType": 5125,
      "count": 7080,
      "type": "SCALAR"
    },
    {
      "bufferView": 2,
      "byteOffset": 603312,
      "componentType": 5126,
      "count": 512,
      "max": [
        0.7691707611083984,
        1.2898615598678589,
        1.3133553266525269
      ],
      "min": [
        0.5688766837120056,
        0.2858377993106842,
        0.9285600185394287
      ],
      "type": "VEC3"
    },
    {
      "bufferView": 2,
      "byteOffset": 609456,
      "componentType": 5126,
      "count": 512,
      "max": [
        0.9690107107162476,
        0.997178852558136,
        0.9998230338096619
      ],
      "min": [
        -0.08062991499900818,
        -0.9946019053459167,
        -0.9998347759246826
      ],
      "type": "VEC3"
    },
    {
      "bufferView": 1,
      "byteOffset": 201104,
      "componentType": 5126,
      "count": 512,
      "max": [
        0.0,
        0.0
      ],
      "min": [
        0.0,
        0.0
      ],
      "type": "VEC2"
    },
    {
      "bufferView": 0,
      "byteOffset": 434928,
      "componentType": 5125,
      "count": 2544,
      "type": "SCALAR"
    },
    {
      "bufferView": 2,
      "byteOffset": 615600,
      "componentType": 5126,
      "count": 1163,
      "max": [
        0.8653991222381592,
        0.2848682105541229,
        0.9281890988349915
      ],
      "min": [
        0.7678269147872925,
        -0.8019307851791382,
        0.263005793094635
      ],
      "type": "VEC3"
    },
    {
      "bufferView": 2,
      "byteOffset": 629556,
      "componentType": 5126,
      "count": 1163,
      "max": [
        0.9999921321868896,
        0.9999313354492188,
        0.999824047088623
      ],
      "min": [
        -0.9958824515342712,
        -0.9999839663505554,
        -0.9999297261238098
      ],
      "type": "VEC3"
    },
    {
      "bufferView": 1,
      "byteOffset": 205200,
      "componentType": 5126,
      "count": 1163,
      "max": [
        0.0,
        0.0
      ],
      "min": [
        0.0,
        0.0
      ],
      "type": "VEC2"
    },
    {
      "bufferView": 0,
      "byteOffset": 445104,
      "componentType": 5125,
      "count": 6642,
      "type": "SCALAR"
    },
    {
      "bufferView": 2,
      "byteOffset": 643512,
      "componentType": 5126,
      "count": 589,
      "max": [
        0.770592212677002,
        0.38075530529022217,
        1.3133553266525269
      ],
      "min": [
        0.5698720216751099,
        -0.7289476990699768,
        0.8794570565223694
      ],
      "type": "VEC3"
    },
    {
      "bufferView": 2,
      "byteOffset": 650580,
      "componentType": 5126,
      "count": 589,
      "max": [
        0.9956058859825134,
        0.9941221475601196,
        0.9994416236877441
      ],
      "min": [
        -0.013535868376493454,
        -0.9967054724693298,
        -0.9999967217445374
      ],
      "type": "VEC3"
    },
    {
      "bufferView": 1,
      "byteOffset": 214504,
      "componentType": 5126,
      "count": 589,
      "max": [
        0.0,
        0.0
      ],
      "min": [
        0.0,
        0.0
      ],
      "type": "VEC2"
    },
    {
      "bufferView": 0,
      "byteOffset": 471672,
      "componentType": 5125,
      "count": 3108,
      "type": "SCALAR"
    },
    {
      "bufferView": 2,
      "byteOffset": 657648,
      "componentType": 5126,
      "count": 831,
      "max": [
        0.9737036824226379,
        -0.36038938164711,
        1.0526344776153564
      ],
      "min": [
        0.7264508008956909,
        -0.591058075428009,
        0.9088847637176514
      ],
      "type": "VEC3"
    },
    {
      "bufferView": 2,
      "byteOffset": 667620,
      "componentType": 5126,
      "count": 831,
      "max": [
        0.9994291663169861,
        0.9998826384544373,
        0.9998672604560852
      ],
      "min": [
        -0.9999973773956299,
        -0.9986397624015808,
        -1.0
      ],
      "type": "VEC3"
    },
    {
      "bufferView": 1,
      "byteOffset": 219216,
      "componentType": 5126,
      "count": 831,
      "max": [
        0.0,
        0.0
      ],
      "min": [
        0.0,
        0.0
      ],
      "type": "VEC2"
    },
    {
      "bufferView": 0,
      "byteOffset": 484104,
      "componentType": 5125,
      "count": 4944,
      "type": "SCALAR"
    },
    {
      "bufferView": 2,
      "byteOffset": 677592,
      "componentType": 5126,
      "count": 147,
      "max": [
        0.9645575881004333,
        -0.36801841855049133,
        1.0464353561401367
      ],
      "min": [
        0.7884604930877686,
        -0.4619106650352478,
        0.9162424206733704
      ],
      "type": "VEC3"
    },
    {
      "bufferView": 2,
      "byteOffset": 679356,
      "componentType": 5126,
      "count": 147,
      "max": [
        -0.45228055119514465,
        0.8916931748390198,
        0.01002289354801178
      ],
      "min": [
        -0.47438913583755493,
        0.8803144693374634,
        -0.02532915398478508
      ],
      "type": "VEC3"
    },
    {
      "bufferView": 1,
      "byteOffset": 225864,
      "componentType": 5126,
      "count": 147,
      "max": [
        0.0,
        0.0
      ],
      "min": [
        0.0,
        0.0
      ],
      "type": "VEC2"
    },
    {
      "bufferView": 0,
      "byteOffset": 503880,
      "componentType": 5125,
      "count": 780,
      "type": "SCALAR"
    },
    {
      "bufferView": 2,
      "byteOffset": 681120,
      "componentType": 5126,
      "count": 3136,
      "max": [
        0.4177156686782837,
        2.285010814666748,
        0.38787102699279785
      ],
      "min": [
        -0.4177156686782837,
        1.9787729978561401,
        0.25009065866470337
      ],
      "type": "VEC3"
    },
    {
      "bufferView": 2,
      "byteOffset": 718752,
      "componentType": 5126,
      "count": 3136,
      "max": [
        1.0,
        0.9971417784690857,
        1.0
      ],
      "min": [
        -1.0,
        -0.9969950318336487,
        -1.0
      ],
      "type": "VEC3"
    },
    {
      "bufferView": 1,
      "byteOffset": 227040,
      "componentType": 5126,
      "count": 3136,
      "max": [
        0.0,
        0.0
      ],
      "min": [
        0.0,
        0.0
      ],
      "type": "VEC2"
    },
    {
      "bufferView": 0,
      "byteOffset": 507000,
      "componentType": 5125,
      "count": 18432,
      "type": "SCALAR"
    },
    {
      "bufferView": 2,
      "byteOffset": 756384,
      "componentType": 5126,
      "count": 363,
      "max": [
        0.6021409034729004,
        1.823590874671936,
        1.3002958297729492
      ],
      "min": [
        -0.6021409034729004,
        1.1230067014694214,
        1.0319957733154297
      ],
      "type": "VEC3"
    },
    {
      "bufferView": 2,
      "byteOffset": 760740,
      "componentType": 5126,
      "count": 363,
      "max": [
        0.24660183489322662,
        0.43409308791160583,
        0.940714418888092
      ],
      "min": [
        -0.24659666419029236,
        0.31716588139533997,
        0.8875945806503296
      ],
      "type": "VEC3"
    },
    {
      "bufferView": 0,
      "byteOffset": 580728,
      "componentType": 5125,
      "count": 1920,
      "type": "SCALAR"
    },
    {
      "bufferView": 2,
      "byteOffset": 765096,
      "componentType": 5126,
      "count": 259,
      "max": [
        0.6912046670913696,
        -0.20295143127441406,
        1.2948898077011108
      ],
      "min": [
        -0.6912046670913696,
        -0.8615835309028625,
        0.9410346746444702
      ],
      "type": "VEC3"
    },
    {
      "bufferView": 2,
      "byteOffset": 768204,
      "componentType": 5126,
      "count": 259,
      "max": [
        0.17223122715950012,
        -0.4405159056186676,
        0.8818469643592834
      ],
      "min": [
        -0.17223834991455078,
        -0.5260875225067139,
        0.8504303693771362
      ],
      "type": "VEC3"
    },
    {
      "bufferView": 1,
      "byteOffset": 252128,
      "componentType": 5126,
      "count": 259,
      "max": [
        0.0,
        0.0
      ],
      "min": [
        0.0,
        0.0
      ],
      "type": "VEC2"
    },
    {
      "bufferView": 0,
      "byteOffset": 588408,
      "componentType": 5125,
      "count": 1296,
      "type": "SCALAR"
    },
    {
      "bufferView": 2,
      "byteOffset": 771312,
      "componentType": 5126,
      "count": 24,
      "max": [
        0.7438086867332458,
        1.305513858795166,
        1.2878756523132324
      ],
      "min": [
        0.5793641209602356,
        0.40224501490592957,
        0.9511622190475464
      ],
      "type": "VEC3"
    },
    {
      "bufferView": 2,
      "byteOffset": 771600,
      "componentType": 5126,
      "count": 24,
      "max": [
        0.9335986971855164,
        0.03256262466311455,
        0.5134493112564087
      ],
      "min": [
        0.8580958247184753,
        -0.013544055633246899,
        0.3576861321926117
      ],
      "type": "VEC3"
    },
    {
      "bufferView": 1,
      "byteOffset": 254200,
      "componentType": 5126,
      "count": 24,
      "max": [
        0.0,
        0.0
      ],
      "min": [
        0.0,
        0.0
      ],
      "type": "VEC2"
    },
    {
      "bufferView": 0,
      "byteOffset": 593592,
      "componentType": 5125,
      "count": 72,
      "type": "SCALAR"
    },
    {
      "bufferView": 2,
      "byteOffset": 771888,
      "componentType": 5126,
      "count": 15,
      "max": [
        0.7511681318283081,
        0.30537232756614685,
        1.2843269109725952
      ],
      "min": [
        0.58087557554245,
        -0.6630480289459229,
        0.9009497165679932
      ],
      "type": "VEC3"
    },
    {
      "bufferView": 2,
      "byteOffset": 772068,
      "componentType": 5126,
      "count": 15,
      "max": [
        0.9272337555885315,
        0.0068777562119066715,
        0.5105153918266296
      ],
      "min": [
        0.8586524724960327,
        -0.04571640491485596,
        0.3742615282535553
      ],
      "type": "VEC3"
    },
    {
      "bufferView": 1,
      "byteOffset": 254392,
      "componentType": 5126,
      "count": 15,
      "max": [
        0.0,
        0.0
      ],
      "min": [
        0.0,
        0.0
      ],
      "type": "VEC2"
    },
    {
      "bufferView": 0,
      "byteOffset": 593880,
      "componentType": 5125,
      "count": 51,
      "type": "SCALAR"
    },
    {
      "bufferView": 2,
      "byteOffset": 772248,
      "componentType": 5126,
      "count": 1511,
      "max": [
        0.7644768953323364,
        -0.7812654972076416,
        0.947966456413269
      ],
      "min": [
        -0.7644768953323364,
        -2.142366409301758,
        0.6888326406478882
      ],
      "type": "VEC3"
    },
    {
      "bufferView": 2,
      "byteOffset": 790380,
      "componentType": 5126,
      "count": 1511,
      "max": [
        0.8116858005523682,
        0.36045676469802856,
        0.9978160858154297
      ],
      "min": [
        -0.8116865754127502,
        -0.48017847537994385,
        0.5802107453346252
      ],
      "type": "VEC3"
    },
    {
      "bufferView": 1,
      "byteOffset": 254512,
      "componentType": 5126,
      "count": 1511,
      "max": [
        1.0000001192092896,
        1.0000001192092896
      ],
      "min": [
        -6.387374469341012e-07,
        -1.9634563841464114e-07
      ],
      "type": "VEC2"
    },
    {
      "bufferView": 0,
      "byteOffset": 594084,
      "componentType": 5125,
      "count": 8532,
      "type": "SCALAR"
    },
    {
      "bufferView": 2,
      "byteOffset": 808512,
      "componentType": 5126,
      "count": 296,
      "max": [
        0.6922008991241455,
        -0.7790564894676208,
        0.9410346746444702
      ],
      "min": [
        -0.6922008991241455,
        -0.9708645343780518,
        0.9410346150398254
      ],
      "type": "VEC3"
    },
    {
      "bufferView": 2,
      "byteOffset": 812064,
      "componentType": 5126,
      "count": 296,
      "max": [
        3.2813586585689336e-06,
        4.182681095699081e-06,
        1.0
      ],
      "min": [
        -3.2813459256431088e-06,
        -4.067820100317476e-06,
        1.0
      ],
      "type": "VEC3"
    },
    {
      "bufferView": 1,
      "byteOffset": 266600,
      "componentType": 5126,
      "count": 296,
      "max": [
        0.0,
        0.0
      ],
      "min": [
        0.0,
        0.0
      ],
      "type": "VEC2"
    },
    {
      "bufferView": 0,
      "byteOffset": 628212,
      "componentType": 5125,
      "count": 480,
      "type": "SCALAR"
    },
    {
      "bufferView": 2,
      "byteOffset": 815616,
      "componentType": 5126,
      "count": 754,
      "max": [
        0.7405988574028015,
        2.207737684249878,
        0.9007546305656433
      ],
      "min": [
        -0.7405988574028015,
        1.8395986557006836,
        0.7518324255943298
      ],
      "type": "VEC3"
    },
    {
      "bufferView": 2,
      "byteOffset": 824664,
      "componentType": 5126,
      "count": 754,
      "max": [
        0.9952266216278076,
        0.997807502746582,
        0.7324732542037964
      ],
      "min": [
        -0.9952266812324524,
        0.05945891514420509,
        -0.6556737422943115
      ],
      "type": "VEC3"
    },
    {
      "bufferView": 1,
      "byteOffset": 268968,
      "componentType": 5126,
      "count": 754,
      "max": [
        0.9458248615264893,
        0.2868858575820923
      ],
      "min": [
        0.052793897688388824,
        0.06696899235248566
      ],
      "type": "VEC2"
    },
    {
      "bufferView": 0,
      "byteOffset": 630132,
      "componentType": 5125,
      "count": 4116,
      "type": "SCALAR"
    },
    {
      "bufferView": 2,
      "byteOffset": 833712,
      "componentType": 5126,
      "count": 188,
      "max": [
        0.8796793222427368,
        0.930694580078125,
        0.36053231358528137
      ],
      "min": [
        -0.8796793222427368,
        -1.0580590963363647,
        0.22576938569545746
      ],
      "type": "VEC3"
    },
    {
      "bufferView": 2,
      "byteOffset": 835968,
      "componentType": 5126,
      "count": 188,
      "max": [
        0.9997220635414124,
        0.21410878002643585,
        0.23700612783432007
      ],
      "min": [
        -0.9997220039367676,
        -0.26223620772361755,
        -0.0930732935667038
      ],
      "type": "VEC3"
    },
    {
      "bufferView": 1,
      "byteOffset": 275000,
      "componentType": 5126,
      "count": 188,
      "max": [
        0.0,
        0.0
      ],
      "min": [
        0.0,
        0.0
      ],
      "type": "VEC2"
    },
    {
      "bufferView": 0,
      "byteOffset": 646596,
      "componentType": 5125,
      "count": 732,
      "type": "SCALAR"
    },
    {
      "bufferView": 2,
      "byteOffset": 838224,
      "componentType": 5126,
      "count": 312,
      "max": [
        0.8796661496162415,
        0.9256615042686462,
        0.2540186941623688
      ],
      "min": [
        -0.8796661496162415,
        -1.0579386949539185,
        0.13817988336086273
      ],
      "type": "VEC3"
    },
    {
      "bufferView": 2,
      "byteOffset": 841968,
      "componentType": 5126,
      "count": 312,
      "max": [
        0.9999963045120239,
        0.21470032632350922,
        0.20917735993862152
      ],
      "min": [
        -0.9999963045120239,
        -0.06324586272239685,
        -9.152562086001126e-08
      ],
      "type": "VEC3"
    },
    {
      "bufferView": 1,
      "byteOffset": 276504,
      "componentType": 5126,
      "count": 312,
      "max": [
        0.0,
        0.0
      ],
      "min": [
        0.0,
        0.0
      ],
      "type": "VEC2"
    },
    {
      "bufferView": 0,
      "byteOffset": 649524,
      "componentType": 5125,
      "count": 1500,
      "type": "SCALAR"
    },
    {
      "bufferView": 2,
      "byteOffset": 845712,
      "componentType": 5126,
      "count": 1123,
      "max": [
        0.6021389961242676,
        2.2406139373779297,
        1.0377846956253052
      ],
      "min": [
        -0.6021389961242676,
        1.710972547531128,
        0.6113497614860535
      ],
      "type": "VEC3"
    },
    {
      "bufferView": 2,
      "byteOffset": 859188,
      "componentType": 5126,
      "count": 1123,
      "max": [
        0.5589421391487122,
        0.9999181628227234,
        0.9942342042922974
      ],
      "min": [
        -0.5589401721954346,
        0.10723032057285309,
        -0.8249241709709167
      ],
      "type": "VEC3"
    },
    {
      "bufferView": 1,
      "byteOffset": 279000,
      "componentType": 5126,
      "count": 1123,
      "max": [
        0.0,
        0.0
      ],
      "min": [
        0.0,
        0.0
      ],
      "type": "VEC2"
    },
    {
      "bufferView": 0,
      "byteOffset": 655524,
      "componentType": 5125,
      "count": 6216,
      "type": "SCALAR"
    },
    {
      "bufferView": 2,
      "byteOffset": 872664,
      "componentType": 5126,
      "count": 2383,
      "max": [
        0.8988426923751831,
        2.0227468013763428,
        0.687269926071167
      ],
      "min": [
        -0.8988426923751831,
        -2.2357728481292725,
        0.13817986845970154
      ],
      "type": "VEC3"
    },
    {
      "bufferView": 2,
      "byteOffset": 901260,
      "componentType": 5126,
      "count": 2383,
      "max": [
        1.0,
        1.0,
        0.9999662637710571
      ],
      "min": [
        -1.0,
        -1.0,
        -1.0
      ],
      "type": "VEC3"
    },
    {
      "bufferView": 1,
      "byteOffset": 287984,
      "componentType": 5126,
      "count": 2383,
      "max": [
        0.0,
        0.0
      ],
      "min": [
        0.0,
        0.0
      ],
      "type": "VEC2"
    },
    {
      "bufferView": 0,
      "byteOffset": 680388,
      "componentType": 5125,
      "count": 12924,
      "type": "SCALAR"
    },
    {
      "bufferView": 2,
      "byteOffset": 929856,
      "componentType": 5126,
      "count": 533,
      "max": [
        0.8893141746520996,
        -0.671708881855011,
        0.9406169056892395
      ],
      "min": [
        0.6960189938545227,
        -1.8897234201431274,
        0.2620856761932373
      ],
      "type": "VEC3"
    },
    {
      "bufferView": 2,
      "byteOffset": 936252,
      "componentType": 5126,
      "count": 533,
      "max": [
        0.9999879002571106,
        0.6851096749305725,
        0.9371488094329834
      ],
      "min": [
        -0.012490210123360157,
        -0.6002922058105469,
        -0.9151982069015503
      ],
      "type": "VEC3"
    },
    {
      "bufferView": 1,
      "byteOffset": 307048,
      "componentType": 5126,
      "count": 533,
      "max": [
        0.0,
        0.0
      ],
      "min": [
        0.0,
        0.0
      ],
      "type": "VEC2"
    },
    {
      "bufferView": 0,
      "byteOffset": 732084,
      "componentType": 5125,
      "count": 2814,
      "type": "SCALAR"
    },
    {
      "bufferView": 2,
      "byteOffset": 942648,
      "componentType": 5126,
      "count": 337,
      "max": [
        0.8774996399879456,
        -0.8264989852905273,
        0.7692824602127075
      ],
      "min": [
        0.837145984172821,
        -1.034888505935669,
        0.5492285490036011
      ],
      "type": "VEC3"
    },
    {
      "bufferView": 2,
      "byteOffset": 946692,
      "componentType": 5126,
      "count": 337,
      "max": [
        0.9993065595626831,
        0.9986501336097717,
        0.9997278451919556
      ],
      "min": [
        -0.05209317058324814,
        -0.9993045330047607,
        -0.9998114705085754
      ],
      "type": "VEC3"
    },
    {
      "bufferView": 1,
      "byteOffset": 311312,
      "componentType": 5126,
      "count": 337,
      "max": [
        0.0,
        0.0
      ],
      "min": [
        0.0,
        0.0
      ],
      "type": "VEC2"
    },
    {
      "bufferView": 0,
      "byteOffset": 743340,
      "componentType": 5125,
      "count": 1839,
      "type": "SCALAR"
    },
    {
      "bufferView": 2,
      "byteOffset": 950736,
      "componentType": 5126,
      "count": 234,
      "max": [
        0.83858722448349,
        -1.7198222875595093,
        0.7274259328842163
      ],
      "min": [
        -0.83858722448349,
        -2.1659348011016846,
        0.5750589370727539
      ],
      "type": "VEC3"
    },
    {
      "bufferView": 2,
      "byteOffset": 953544,
      "componentType": 5126,
      "count": 234,
      "max": [
        0.9620939493179321,
        -0.19469057023525238,
        0.7484021782875061
      ],
      "min": [
        -0.9620943665504456,
        -0.9184252023696899,
        0.13164374232292175
      ],
      "type": "VEC3"
    },
    {
      "bufferView": 1,
      "byteOffset": 314008,
      "componentType": 5126,
      "count": 234,
      "max": [
        0.9492500424385071,
        0.8595954775810242
      ],
      "min": [
        0.0645759254693985,
        0.48709067702293396
      ],
      "type": "VEC2"
    },
    {
      "bufferView": 0,
      "byteOffset": 750696,
      "componentType": 5125,
      "count": 1140,
      "type": "SCALAR"
    },
    {
      "bufferView": 2,
      "byteOffset": 956352,
      "componentType": 5126,
      "count": 455,
      "max": [
        0.8943290114402771,
        1.6084258556365967,
        0.6497283577919006
      ],
      "min": [
        0.6388447284698486,
        0.9682754278182983,
        0.00986415147781372
      ],
      "type": "VEC3"
    },
    {
      "bufferView": 2,
      "byteOffset": 961812,
      "componentType": 5126,
      "count": 455,
      "max": [
        0.9952899217605591,
        1.0,
        1.0
      ],
      "min": [
        -0.9941718578338623,
        -1.0,
        -1.0
      ],
      "type": "VEC3"
    },
    {
      "bufferView": 1,
      "byteOffset": 315880,
      "componentType": 5126,
      "count": 455,
      "max": [
        1.0000001192092896,
        0.9933192729949951
      ],
      "min": [
        0.30874156951904297,
        0.0
      ],
      "type": "VEC2"
    },
    {
      "bufferView": 0,
      "byteOffset": 755256,
      "componentType": 5125,
      "count": 2160,
      "type": "SCALAR"
    },
    {
      "bufferView": 2,
      "byteOffset": 967272,
      "componentType": 5126,
      "count": 2923,
      "max": [
        0.84017413854599,
        -1.2464237213134766,
        0.5025080442428589
      ],
      "min": [
        0.7694114446640015,
        -1.604596734046936,
        0.15708446502685547
      ],
      "type": "VEC3"
    },
    {
      "bufferView": 2,
      "byteOffset": 1002348,
      "componentType": 5126,
      "count": 2923,
      "max": [
        1.0,
        1.0,
        1.0
      ],
      "min": [
        -1.0,
        -1.0,
        -1.0
      ],
      "type": "VEC3"
    },
    {
      "bufferView": 1,
      "byteOffset": 319520,
      "componentType": 5126,
      "count": 2923,
      "max": [
        1.0,
        0.9230043292045593
      ],
      "min": [
        0.0,
        0.0
      ],
      "type": "VEC2"
    },
    {
      "bufferView": 0,
      "byteOffset": 763896,
      "componentType": 5125,
      "count": 13020,
      "type": "SCALAR"
    },
    {
      "bufferView": 2,
      "byteOffset": 1037424,
      "componentType": 5126,
      "count": 2923,
      "max": [
        -0.7694115042686462,
        -1.2464238405227661,
        0.5025081038475037
      ],
      "min": [
        -0.84017413854599,
        -1.604596734046936,
        0.15708447992801666
      ],
      "type": "VEC3"
    },
    {
      "bufferView": 2,
      "byteOffset": 1072500,
      "componentType": 5126,
      "count": 2923,
      "max": [
        1.0,
        1.0,
        1.0
      ],
      "min": [
        -1.0,
        -1.0,
        -1.0
      ],
      "type": "VEC3"
    },
    {
      "bufferView": 1,
      "byteOffset": 342904,
      "componentType": 5126,
      "count": 2923,
      "max": [
        0.9931008815765381,
        0.9761823415756226
      ],
      "min": [
        0.034679949283599854,
        0.0
      ],
      "type": "VEC2"
    },
    {
      "bufferView": 0,
      "byteOffset": 815976,
      "componentType": 5125,
      "count": 13020,
      "type": "SCALAR"
    },
    {
      "bufferView": 2,
      "byteOffset": 1107576,
      "componentType": 5126,
      "count": 2923,
      "max": [
        -0.7694115042686462,
        1.4737342596054077,
        0.5025081038475037
      ],
      "min": [
        -0.84017413854599,
        1.1155613660812378,
        0.15708447992801666
      ],
      "type": "VEC3"
    },
    {
      "bufferView": 2,
      "byteOffset": 1142652,
      "componentType": 5126,
      "count": 2923,
      "max": [
        1.0,
        1.0,
        1.0
      ],
      "min": [
        -1.0,
        -1.0,
        -1.0
      ],
      "type": "VEC3"
    },
    {
      "bufferView": 1,
      "byteOffset": 366288,
      "componentType": 5126,
      "count": 2923,
      "max": [
        0.9931008815765381,
        0.9761823415756226
      ],
      "min": [
        0.034679949283599854,
        0.0
      ],
      "type": "VEC2"
    },
    {
      "bufferView": 0,
      "byteOffset": 868056,
      "componentType": 5125,
      "count": 13020,
      "type": "SCALAR"
    },
    {
      "bufferView": 2,
      "byteOffset": 1177728,
      "componentType": 5126,
      "count": 2923,
      "max": [
        0.84017413854599,
        1.4737343788146973,
        0.5025080442428589
      ],
      "min": [
        0.7694114446640015,
        1.1155613660812378,
        0.15708446502685547
      ],
      "type": "VEC3"
    },
    {
      "bufferView": 2,
      "byteOffset": 1212804,
      "componentType": 5126,
      "count": 2923,
      "max": [
        1.0,
        1.0,
        1.0
      ],
      "min": [
        -1.0,
        -1.0,
        -1.0
      ],
      "type": "VEC3"
    },
    {
      "bufferView": 1,
      "byteOffset": 389672,
      "componentType": 5126,
      "count": 2923,
      "max": [
        1.0,
        0.9230043292045593
      ],
      "min": [
        0.0,
        0.0
      ],
      "type": "VEC2"
    },
    {
      "bufferView": 0,
      "byteOffset": 920136,
      "componentType": 5125,
      "count": 13020,
      "type": "SCALAR"
    },
    {
      "bufferView": 2,
      "byteOffset": 1247880,
      "componentType": 5126,
      "count": 1841,
      "max": [
        0.8799270391464233,
        -1.2022887468338013,
        0.559212327003479
      ],
      "min": [
        0.644426167011261,
        -1.6613261699676514,
        0.10038019716739655
      ],
      "type": "VEC3"
    },
    {
      "bufferView": 2,
      "byteOffset": 1269972,
      "componentType": 5126,
      "count": 1841,
      "max": [
        1.0,
        0.9955348372459412,
        0.9988877773284912
      ],
      "min": [
        -0.6808769106864929,
        -0.9955331683158875,
        -0.998887300491333
      ],
      "type": "VEC3"
    },
    {
      "bufferView": 1,
      "byteOffset": 413056,
      "componentType": 5126,
      "count": 1841,
      "max": [
        0.0,
        0.0
      ],
      "min": [
        0.0,
        0.0
      ],
      "type": "VEC2"
    },
    {
      "bufferView": 0,
      "byteOffset": 972216,
      "componentType": 5125,
      "count": 9540,
      "type": "SCALAR"
    },
    {
      "bufferView": 2,
      "byteOffset": 1292064,
      "componentType": 5126,
      "count": 1841,
      "max": [
        -0.6444259881973267,
        -1.2022887468338013,
        0.559212327003479
      ],
      "min": [
        -0.879926860332489,
        -1.6613261699676514,
        0.10038025677204132
      ],
      "type": "VEC3"
    },
    {
      "bufferView": 2,
      "byteOffset": 1314156,
      "componentType": 5126,
      "count": 1841,
      "max": [
        0.6808772683143616,
        0.9955348372459412,
        0.9988874793052673
      ],
      "min": [
        -1.0,
        -0.9955331087112427,
        -0.9988874197006226
      ],
      "type": "VEC3"
    },
    {
      "bufferView": 1,
      "byteOffset": 427784,
      "componentType": 5126,
      "count": 1841,
      "max": [
        0.0,
        0.0
      ],
      "min": [
        0.0,
        0.0
      ],
      "type": "VEC2"
    },
    {
      "bufferView": 0,
      "byteOffset": 1010376,
      "componentType": 5125,
      "count": 9540,
      "type": "SCALAR"
    },
    {
      "bufferView": 2,
      "byteOffset": 1336248,
      "componentType": 5126,
      "count": 1841,
      "max": [
        -0.6444259881973267,
        1.5178693532943726,
        0.559212327003479
      ],
      "min": [
        -0.879926860332489,
        1.0588319301605225,
        0.10038025677204132
      ],
      "type": "VEC3"
    },
    {
      "bufferView": 2,
      "byteOffset": 1358340,
      "componentType": 5126,
      "count": 1841,
      "max": [
        0.6808773279190063,
        0.9955348372459412,
        0.9988874793052673
      ],
      "min": [
        -1.0,
        -0.9955330491065979,
        -0.9988874197006226
      ],
      "type": "VEC3"
    },
    {
      "bufferView": 1,
      "byteOffset": 442512,
      "componentType": 5126,
      "count": 1841,
      "max": [
        0.0,
        0.0
      ],
      "min": [
        0.0,
        0.0
      ],
      "type": "VEC2"
    },
    {
      "bufferView": 0,
      "byteOffset": 1048536,
      "componentType": 5125,
      "count": 9540,
      "type": "SCALAR"
    },
    {
      "bufferView": 2,
      "byteOffset": 1380432,
      "componentType": 5126,
      "count": 455,
      "max": [
        0.8943290114402771,
        -1.1117322444915771,
        0.6497283577919006
      ],
      "min": [
        0.6388447284698486,
        -1.7518826723098755,
        0.00986415147781372
      ],
      "type": "VEC3"
    },
    {
      "bufferView": 2,
      "byteOffset": 1385892,
      "componentType": 5126,
      "count": 455,
      "max": [
        0.9952899217605591,
        1.0,
        1.0
      ],
      "min": [
        -0.9941718578338623,
        -1.0,
        -1.0
      ],
      "type": "VEC3"
    },
    {
      "bufferView": 1,
      "byteOffset": 457240,
      "componentType": 5126,
      "count": 455,
      "max": [
        1.0000001192092896,
        0.9933192729949951
      ],
      "min": [
        0.30874156951904297,
        0.0
      ],
      "type": "VEC2"
    },
    {
      "bufferView": 0,
      "byteOffset": 1086696,
      "componentType": 5125,
      "count": 2160,
      "type": "SCALAR"
    },
    {
      "bufferView": 2,
      "byteOffset": 1391352,
      "componentType": 5126,
      "count": 455,
      "max": [
        -0.6388447880744934,
        -1.1117322444915771,
        0.6497283577919006
      ],
      "min": [
        -0.8943290114402771,
        -1.751882791519165,
        0.00986415147781372
      ],
      "type": "VEC3"
    },
    {
      "bufferView": 2,
      "byteOffset": 1396812,
      "componentType": 5126,
      "count": 455,
      "max": [
        0.9941714406013489,
        1.0,
        1.0
      ],
      "min": [
        -0.99528968334198,
        -1.0,
        -1.0
      ],
      "type": "VEC3"
    },
    {
      "bufferView": 1,
      "byteOffset": 460880,
      "componentType": 5126,
      "count": 455,
      "max": [
        0.8611626625061035,
        0.9933193325996399
      ],
      "min": [
        0.0,
        0.0
      ],
      "type": "VEC2"
    },
    {
      "bufferView": 0,
      "byteOffset": 1095336,
      "componentType": 5125,
      "count": 2160,
      "type": "SCALAR"
    },
    {
      "bufferView": 2,
      "byteOffset": 1402272,
      "componentType": 5126,
      "count": 455,
      "max": [
        -0.6388447880744934,
        1.6084258556365967,
        0.6497283577919006
      ],
      "min": [
        -0.8943290114402771,
        0.9682753086090088,
        0.00986415147781372
      ],
      "type": "VEC3"
    },
    {
      "bufferView": 2,
      "byteOffset": 1407732,
      "componentType": 5126,
      "count": 455,
      "max": [
        0.9941714406013489,
        1.0,
        1.0
      ],
      "min": [
        -0.99528968334198,
        -1.0,
        -1.0
      ],
      "type": "VEC3"
    },
    {
      "bufferView": 1,
      "byteOffset": 464520,
      "componentType": 5126,
      "count": 455,
      "max": [
        0.8611626625061035,
        0.9933193325996399
      ],
      "min": [
        0.0,
        0.0
      ],
      "type": "VEC2"
    },
    {
      "bufferView": 0,
      "byteOffset": 1103976,
      "componentType": 5125,
      "count": 2160,
      "type": "SCALAR"
    },
    {
      "bufferView": 2,
      "byteOffset": 1413192,
      "componentType": 5126,
      "count": 533,
      "max": [
        -0.6960189938545227,
        -0.671708881855011,
        0.9406169056892395
      ],
      "min": [
        -0.8893141746520996,
        -1.8897234201431274,
        0.2620856761932373
      ],
      "type": "VEC3"
    },
    {
      "bufferView": 2,
      "byteOffset": 1419588,
      "componentType": 5126,
      "count": 533,
      "max": [
        0.012490279972553253,
        0.6851077675819397,
        0.9371486306190491
      ],
      "min": [
        -0.9999879002571106,
        -0.6002984046936035,
        -0.9151983857154846
      ],
      "type": "VEC3"
    },
    {
      "bufferView": 1,
      "byteOffset": 468160,
      "componentType": 5126,
      "count": 533,
      "max": [
        0.0,
        0.0
      ],
      "min": [
        0.0,
        0.0
      ],
      "type": "VEC2"
    },
    {
      "bufferView": 0,
      "byteOffset": 1112616,
      "componentType": 5125,
      "count": 2814,
      "type": "SCALAR"
    },
    {
      "bufferView": 2,
      "byteOffset": 1425984,
      "componentType": 5126,
      "count": 337,
      "max": [
        -0.837145984172821,
        -0.8264989852905273,
        0.7692824602127075
      ],
      "min": [
        -0.8774996399879456,
        -1.034888505935669,
        0.5492285490036011
      ],
      "type": "VEC3"
    },
    {
      "bufferView": 2,
      "byteOffset": 1430028,
      "componentType": 5126,
      "count": 337,
      "max": [
        0.05211518704891205,
        0.9986504912376404,
        0.9997278451919556
      ],
      "min": [
        -0.9993062615394592,
        -0.9993045330047607,
        -0.9998114109039307
      ],
      "type": "VEC3"
    },
    {
      "bufferView": 1,
      "byteOffset": 472424,
      "componentType": 5126,
      "count": 337,
      "max": [
        0.0,
        0.0
      ],
      "min": [
        0.0,
        0.0
      ],
      "type": "VEC2"
    },
    {
      "bufferView": 0,
      "byteOffset": 1123872,
      "componentType": 5125,
      "count": 1839,
      "type": "SCALAR"
    },
    {
      "bufferView": 2,
      "byteOffset": 1434072,
      "componentType": 5126,
      "count": 1683,
      "max": [
        -0.7678269147872925,
        0.2848682105541229,
        1.0464354753494263
      ],
      "min": [
        -0.9645575881004333,
        -0.8019307851791382,
        0.263005793094635
      ],
      "type": "VEC3"
    },
    {
      "bufferView": 2,
      "byteOffset": 1454268,
      "componentType": 5126,
      "count": 1683,
      "max": [
        0.9958824515342712,
        0.9999313950538635,
        0.9998241066932678
      ],
      "min": [
        -0.9999921321868896,
        -0.9999839663505554,
        -0.9999297857284546
      ],
      "type": "VEC3"
    },
    {
      "bufferView": 1,
      "byteOffset": 475120,
      "componentType": 5126,
      "count": 1683,
      "max": [
        0.0,
        0.0
      ],
      "min": [
        0.0,
        0.0
      ],
      "type": "VEC2"
    },
    {
      "bufferView": 0,
      "byteOffset": 1131228,
      "componentType": 5125,
      "count": 7422,
      "type": "SCALAR"
    },
    {
      "bufferView": 2,
      "byteOffset": 1474464,
      "componentType": 5126,
      "count": 589,
      "max": [
        -0.5698720216751099,
        0.38075530529022217,
        1.3133553266525269
      ],
      "min": [
        -0.7705922722816467,
        -0.7289477586746216,
        0.8794570565223694
      ],
      "type": "VEC3"
    },
    {
      "bufferView": 2,
      "byteOffset": 1481532,
      "componentType": 5126,
      "count": 589,
      "max": [
        0.013629984110593796,
        0.9941244125366211,
        0.9994416236877441
      ],
      "min": [
        -0.9956278204917908,
        -0.9967120885848999,
        -0.9999967217445374
      ],
      "type": "VEC3"
    },
    {
      "bufferView": 1,
      "byteOffset": 488584,
      "componentType": 5126,
      "count": 589,
      "max": [
        0.0,
        0.0
      ],
      "min": [
        0.0,
        0.0
      ],
      "type": "VEC2"
    },
    {
      "bufferView": 0,
      "byteOffset": 1160916,
      "componentType": 5125,
      "count": 3108,
      "type": "SCALAR"
    },
    {
      "bufferView": 2,
      "byteOffset": 1488600,
      "componentType": 5126,
      "count": 831,
      "max": [
        -0.7264508008956909,
        -0.36038938164711,
        1.0526344776153564
      ],
      "min": [
        -0.9737036824226379,
        -0.591058075428009,
        0.9088847637176514
      ],
      "type": "VEC3"
    },
    {
      "bufferView": 2,
      "byteOffset": 1498572,
      "componentType": 5126,
      "count": 831,
      "max": [
        0.9999973773956299,
        0.9998826384544373,
        0.9998672604560852
      ],
      "min": [
        -0.9994291663169861,
        -0.9986391663551331,
        -1.0
      ],
      "type": "VEC3"
    },
    {
      "bufferView": 1,
      "byteOffset": 493296,
      "componentType": 5126,
      "count": 831,
      "max": [
        0.0,
        0.0
      ],
      "min": [
        0.0,
        0.0
      ],
      "type": "VEC2"
    },
    {
      "bufferView": 0,
      "byteOffset": 1173348,
      "componentType": 5125,
      "count": 4944,
      "type": "SCALAR"
    },
    {
      "bufferView": 2,
      "byteOffset": 1508544,
      "componentType": 5126,
      "count": 1237,
      "max": [
        -0.736443042755127,
        1.2401442527770996,
        0.9540351629257202
      ],
      "min": [
        -0.869931161403656,
        0.2224389612674713,
        0.28513452410697937
      ],
      "type": "VEC3"
    },
    {
      "bufferView": 2,
      "byteOffset": 1523388,
      "componentType": 5126,
      "count": 1237,
      "max": [
        0.9958821535110474,
        0.999931275844574,
        0.9998239278793335
      ],
      "min": [
        -0.9998894929885864,
        -0.9999839663505554,
        -0.9999298453330994
      ],
      "type": "VEC3"
    },
    {
      "bufferView": 1,
      "byteOffset": 499944,
      "componentType": 5126,
      "count": 1237,
      "max": [
        0.0,
        0.0
      ],
      "min": [
        0.0,
        0.0
      ],
      "type": "VEC2"
    },
    {
      "bufferView": 0,
      "byteOffset": 1193124,
      "componentType": 5125,
      "count": 7080,
      "type": "SCALAR"
    },
    {
      "bufferView": 2,
      "byteOffset": 1538232,
      "componentType": 5126,
      "count": 512,
      "max": [
        -0.5688766241073608,
        1.2898615598678589,
        1.3133553266525269
      ],
      "min": [
        -0.7691707611083984,
        0.2858377993106842,
        0.9285600185394287
      ],
      "type": "VEC3"
    },
    {
      "bufferView": 2,
      "byteOffset": 1544376,
      "componentType": 5126,
      "count": 512,
      "max": [
        0.08063098788261414,
        0.9971779584884644,
        0.9998236894607544
      ],
      "min": [
        -0.9690320491790771,
        -0.9946028590202332,
        -0.9998337626457214
      ],
      "type": "VEC3"
    },
    {
      "bufferView": 1,
      "byteOffset": 509840,
      "componentType": 5126,
      "count": 512,
      "max": [
        0.0,
        0.0
      ],
      "min": [
        0.0,
        0.0
      ],
      "type": "VEC2"
    },
    {
      "bufferView": 0,
      "byteOffset": 1221444,
      "componentType": 5125,
      "count": 2544,
      "type": "SCALAR"
    },
    {
      "bufferView": 2,
      "byteOffset": 1550520,
      "componentType": 5126,
      "count": 15,
      "max": [
        -0.58087557554245,
        0.30537232756614685,
        1.2843269109725952
      ],
      "min": [
        -0.7511681318283081,
        -0.6630480289459229,
        0.9009497165679932
      ],
      "type": "VEC3"
    },
    {
      "bufferView": 2,
      "byteOffset": 1550700,
      "componentType": 5126,
      "count": 15,
      "max": [
        -0.8586524724960327,
        0.006877779960632324,
        0.5105153918266296
      ],
      "min": [
        -0.927233874797821,
        -0.04571648687124252,
        0.3742614984512329
      ],
      "type": "VEC3"
    },
    {
      "bufferView": 1,
      "byteOffset": 513936,
      "componentType": 5126,
      "count": 15,
      "max": [
        0.0,
        0.0
      ],
      "min": [
        0.0,
        0.0
      ],
      "type": "VEC2"
    },
    {
      "bufferView": 0,
      "byteOffset": 1231620,
      "componentType": 5125,
      "count": 51,
      "type": "SCALAR"
    },
    {
      "bufferView": 2,
      "byteOffset": 1550880,
      "componentType": 5126,
      "count": 24,
      "max": [
        -0.5793641209602356,
        1.305513858795166,
        1.2878756523132324
      ],
      "min": [
        -0.7438086867332458,
        0.40224501490592957,
        0.9511622190475464
      ],
      "type": "VEC3"
    },
    {
      "bufferView": 2,
      "byteOffset": 1551168,
      "componentType": 5126,
      "count": 24,
      "max": [
        -0.8580960035324097,
        0.032562773674726486,
        0.5134491920471191
      ],
      "min": [
        -0.9335987567901611,
        -0.013544083572924137,
        0.35768601298332214
      ],
      "type": "VEC3"
    },
    {
      "bufferView": 1,
      "byteOffset": 514056,
      "componentType": 5126,
      "count": 24,
      "max": [
        0.0,
        0.0
      ],
      "min": [
        0.0,
        0.0
      ],
      "type": "VEC2"
    },
    {
      "bufferView": 0,
      "byteOffset": 1231824,
      "componentType": 5125,
      "count": 72,
      "type": "SCALAR"
    }
  ],
  "asset": {
    "extras": {
      "author": "Cherk (https://sketchfab.com/alex20010804)",
      "license": "CC-BY-4.0 (http://creativecommons.org/licenses/by/4.0/)",
      "source": "https://sketchfab.com/3d-models/bmw-m3-g80-e7d8be35e2f34b7f84e0543fff7fda27",
      "title": "BMW M3 (G80)"
    },
    "generator": "Sketchfab-14.86.0",
    "version": "2.0"
  },
  "bufferViews": [
    {
      "buffer": 0,
      "byteLength": 1232112,
      "name": "floatBufferViews",
      "target": 34963
    },
    {
      "buffer": 0,
      "byteLength": 514248,
      "byteOffset": 1232112,
      "byteStride": 8,
      "name": "floatBufferViews",
      "target": 34962
    },
    {
      "buffer": 0,
      "byteLength": 1551456,
      "byteOffset": 1746360,
      "byteStride": 12,
      "name": "floatBufferViews",
      "target": 34962
    }
  ],
  "buffers": [
    {
      "byteLength": 3297816,
      "uri": "scene.bin"
    }
  ],
  "images": [
    {
      "uri": "textures/lights_baseColor.png"
    },
    {
      "uri": "textures/tyre_baseColor.png"
    },
    {
      "uri": "textures/brakes_baseColor.png"
    }
  ],
  "materials": [
    {
      "doubleSided": true,
      "name": "bodyColor",
      "pbrMetallicRoughness": {
        "baseColorFactor": [
          0.362154,
          0.436504,
          0.0285332,
          1.0
        ],
        "metallicFactor": 0.0,
        "roughnessFactor": 0.879411209841199
      }
    },
    {
      "doubleSided": true,
      "name": "blackBodyColor",
      "pbrMetallicRoughness": {
        "baseColorFactor": [
          0.0100137,
          0.0100137,
          0.0100137,
          1.0
        ],
        "metallicFactor": 0.0,
        "roughnessFactor": 0.9969135703749235
      }
    },
    {
      "doubleSided": true,
      "name": "blackMat",
      "pbrMetallicRoughness": {
        "baseColorFactor": [
          0.0168274,
          0.0168274,
          0.0168274,
          1.0
        ],
        "metallicFactor": 0.0
      }
    },
    {
      "doubleSided": true,
      "name": "disk_chrome",
      "pbrMetallicRoughness": {
        "baseColorFactor": [
          0.268163,
          0.268163,
          0.268163,
          1.0
        ],
        "metallicFactor": 0.0,
        "roughnessFactor": 0.9195511000000001
      }
    },
    {
      "doubleSided": true,
      "name": "mirror",
      "pbrMetallicRoughness": {
        "baseColorFactor": [
          0.8,
          0.8,
          0.8,
          1.0
        ],
        "metallicFactor": 0.0,
        "roughnessFactor": 0.7482858764391636
      }
    },
    {
      "doubleSided": true,
      "name": "material",
      "pbrMetallicRoughness": {
        "baseColorFactor": [
          0.452938,
          0.452938,
          0.452938,
          1.0
        ],
        "metallicFactor": 0.0,
        "roughnessFactor": 0.8603951325161618
      }
    },
    {
      "doubleSided": true,
      "name": "tonedGlass",
      "pbrMetallicRoughness": {
        "baseColorFactor": [
          0.00303359,
          0.00303359,
          0.00303359,
          1.0
        ],
        "metallicFactor": 0.0,
        "roughnessFactor": 0.999040694611289
      }
    },
    {
      "doubleSided": true,
      "name": "lights",
      "pbrMetallicRoughness": {
        "baseColorTexture": {
          "index": 0
        },
        "metallicFactor": 0.0,
        "roughnessFactor": 0.7482858764391636
      }
    },
    {
      "doubleSided": true,
      "name": "blackCover",
      "pbrMetallicRoughness": {
        "baseColorFactor": [
          0.0,
          0.0,
          0.0,
          1.0
        ],
        "metallicFactor": 0.0
      }
    },
    {
      "doubleSided": true,
      "name": "tyre",
      "pbrMetallicRoughness": {
        "baseColorTexture": {
          "index": 1
        },
        "metallicFactor": 0.0,
        "roughnessFactor": 0.8735088935932648
      }
    },
    {
      "doubleSided": true,
      "name": "brakes",
      "pbrMetallicRoughness": {
        "baseColorTexture": {
          "index": 2
        },
        "metallicFactor": 0.0,
        "roughnessFactor": 0.7470177871865296
      }
    }
  ],
  "meshes": [
    {
      "name": "body_bodyColor_0",
      "primitives": [
        {
          "attributes": {
            "NORMAL": 1,
            "POSITION": 0,
            "TEXCOORD_0": 2
          },
          "indices": 3,
          "material": 0,
          "mode": 4
        }
      ]
    },
    {
      "name": "body_blackBodyColor_0",
      "primitives": [
        {
          "attributes": {
            "NORMAL": 5,
            "POSITION": 4,
            "TEXCOORD_0": 6
          },
          "indices": 7,
          "material": 1,
          "mode": 4
        }
      ]
    },
    {
      "name": "body_blackMat_0",
      "primitives": [
        {
          "attributes": {
            "NORMAL": 9,
            "POSITION": 8,
            "TEXCOORD_0": 10
          },
          "indices": 11,
          "material": 2,
          "mode": 4
        }
      ]
    },
    {
      "name": "bumper_front_bodyColor_0",
      "primitives": [
        {
          "attributes": {
            "NORMAL": 13,
            "POSITION": 12,
            "TEXCOORD_0": 14
          },
          "indices": 15,
          "material": 0,
          "mode": 4
        }
      ]
    },
    {
      "name": "bumper_front_blackBodyColor_0",
      "primitives": [
        {
          "attributes": {
            "NORMAL": 17,
            "POSITION": 16,
            "TEXCOORD_0": 18
          },
          "indices": 19,
          "material": 1,
          "mode": 4
        }
      ]
    },
    {
      "name": "bumper_back_blackBodyColor_0",
      "primitives": [
        {
          "attributes": {
            "NORMAL": 21,
            "POSITION": 20,
            "TEXCOORD_0": 22
          },
          "indices": 23,
          "material": 1,
          "mode": 4
        }
      ]
    },
    {
      "name": "bumper_back_bodyColor_0",
      "primitives": [
        {
          "attributes": {
            "NORMAL": 25,
            "POSITION": 24,
            "TEXCOORD_0": 26
          },
          "indices": 27,
          "material": 0,
          "mode": 4
        }
      ]
    },
    {
      "name": "disk_bl_disk_chrome_0",
      "primitives": [
        {
          "attributes": {
            "NORMAL": 29,
            "POSITION": 28,
            "TEXCOORD_0": 30
          },
          "indices": 31,
          "material": 3,
          "mode": 4
        }
      ]
    },
    {
      "name": "door_back_l_bodyColor_0",
      "primitives": [
        {
          "attributes": {
            "NORMAL": 33,
            "POSITION": 32,
            "TEXCOORD_0": 34
          },
          "indices": 35,
          "material": 0,
          "mode": 4
        }
      ]
    },
    {
      "name": "door_back_l_blackMat_0",
      "primitives": [
        {
          "attributes": {
            "NORMAL": 37,
            "POSITION": 36,
            "TEXCOORD_0": 38
          },
          "indices": 39,
          "material": 2,
          "mode": 4
        }
      ]
    },
    {
      "name": "door_front_l_bodyColor_0",
      "primitives": [
        {
          "attributes": {
            "NORMAL": 41,
            "POSITION": 40,
            "TEXCOORD_0": 42
          },
          "indices": 43,
          "material": 0,
          "mode": 4
        }
      ]
    },
    {
      "name": "door_front_l_blackMat_0",
      "primitives": [
        {
          "attributes": {
            "NORMAL": 45,
            "POSITION": 44,
            "TEXCOORD_0": 46
          },
          "indices": 47,
          "material": 2,
          "mode": 4
        }
      ]
    },
    {
      "name": "door_front_l_blackBodyColor_0",
      "primitives": [
        {
          "attributes": {
            "NORMAL": 49,
            "POSITION": 48,
            "TEXCOORD_0": 50
          },
          "indices": 51,
          "material": 1,
          "mode": 4
        }
      ]
    },
    {
      "name": "door_front_l_mirror_0",
      "primitives": [
        {
          "attributes": {
            "NORMAL": 53,
            "POSITION": 52,
            "TEXCOORD_0": 54
          },
          "indices": 55,
          "material": 4,
          "mode": 4
        }
      ]
    },
    {
      "name": "exhaust_alu_0",
      "primitives": [
        {
          "attributes": {
            "NORMAL": 57,
            "POSITION": 56,
            "TEXCOORD_0": 58
          },
          "indices": 59,
          "material": 5,
          "mode": 4
        }
      ]
    },
    {
      "name": "glass_back_tonedGlass_0",
      "primitives": [
        {
          "attributes": {
            "NORMAL": 61,
            "POSITION": 60
          },
          "indices": 62,
          "material": 6,
          "mode": 4
        }
      ]
    },
    {
      "name": "glass_front_tonedGlass_0",
      "primitives": [
        {
          "attributes": {
            "NORMAL": 64,
            "POSITION": 63,
            "TEXCOORD_0": 65
          },
          "indices": 66,
          "material": 6,
          "mode": 4
        }
      ]
    },
    {
      "name": "glass_side_bl_tonedGlass_0",
      "primitives": [
        {
          "attributes": {
            "NORMAL": 68,
            "POSITION": 67,
            "TEXCOORD_0": 69
          },
          "indices": 70,
          "material": 6,
          "mode": 4
        }
      ]
    },
    {
      "name": "glass_side_fl_tonedGlass_0",
      "primitives": [
        {
          "attributes": {
            "NORMAL": 72,
            "POSITION": 71,
            "TEXCOORD_0": 73
          },
          "indices": 74,
          "material": 6,
          "mode": 4
        }
      ]
    },
    {
      "name": "hood_bodyColor_0",
      "primitives": [
        {
          "attributes": {
            "NORMAL": 76,
            "POSITION": 75,
            "TEXCOORD_0": 77
          },
          "indices": 78,
          "material": 0,
          "mode": 4
        }
      ]
    },
    {
      "name": "jabot_line_blackBodyColor_0",
      "primitives": [
        {
          "attributes": {
            "NORMAL": 80,
            "POSITION": 79,
            "TEXCOORD_0": 81
          },
          "indices": 82,
          "material": 1,
          "mode": 4
        }
      ]
    },
    {
      "name": "light_back_lights_0",
      "primitives": [
        {
          "attributes": {
            "NORMAL": 84,
            "POSITION": 83,
            "TEXCOORD_0": 85
          },
          "indices": 86,
          "material": 7,
          "mode": 4
        }
      ]
    },
    {
      "name": "threshold_bodyColor_0",
      "primitives": [
        {
          "attributes": {
            "NORMAL": 88,
            "POSITION": 87,
            "TEXCOORD_0": 89
          },
          "indices": 90,
          "material": 0,
          "mode": 4
        }
      ]
    },
    {
      "name": "threshold_blackBodyColor_0",
      "primitives": [
        {
          "attributes": {
            "NORMAL": 92,
            "POSITION": 91,
            "TEXCOORD_0": 93
          },
          "indices": 94,
          "material": 1,
          "mode": 4
        }
      ]
    },
    {
      "name": "trunk_bodyColor_0",
      "primitives": [
        {
          "attributes": {
            "NORMAL": 96,
            "POSITION": 95,
            "TEXCOORD_0": 97
          },
          "indices": 98,
          "material": 0,
          "mode": 4
        }
      ]
    },
    {
      "name": "cover_blackCover_0",
      "primitives": [
        {
          "attributes": {
            "NORMAL": 100,
            "POSITION": 99,
            "TEXCOORD_0": 101
          },
          "indices": 102,
          "material": 8,
          "mode": 4
        }
      ]
    },
    {
      "name": "wing_front_l_bodyColor_0",
      "primitives": [
        {
          "attributes": {
            "NORMAL": 104,
            "POSITION": 103,
            "TEXCOORD_0": 105
          },
          "indices": 106,
          "material": 0,
          "mode": 4
        }
      ]
    },
    {
      "name": "wing_front_l_blackBodyColor_0",
      "primitives": [
        {
          "attributes": {
            "NORMAL": 108,
            "POSITION": 107,
            "TEXCOORD_0": 109
          },
          "indices": 110,
          "material": 1,
          "mode": 4
        }
      ]
    },
    {
      "name": "light_front_lights_0",
      "primitives": [
        {
          "attributes": {
            "NORMAL": 112,
            "POSITION": 111,
            "TEXCOORD_0": 113
          },
          "indices": 114,
          "material": 7,
          "mode": 4
        }
      ]
    },
    {
      "name": "tyre_bl_tyre_0",
      "primitives": [
        {
          "attributes": {
            "NORMAL": 116,
            "POSITION": 115,
            "TEXCOORD_0": 117
          },
          "indices": 118,
          "material": 9,
          "mode": 4
        }
      ]
    },
    {
      "name": "brake_fl_brakes_0",
      "primitives": [
        {
          "attributes": {
            "NORMAL": 120,
            "POSITION": 119,
            "TEXCOORD_0": 121
          },
          "indices": 122,
          "material": 10,
          "mode": 4
        }
      ]
    },
    {
      "name": "brake_fr_brakes_0",
      "primitives": [
        {
          "attributes": {
            "NORMAL": 124,
            "POSITION": 123,
            "TEXCOORD_0": 125
          },
          "indices": 126,
          "material": 10,
          "mode": 4
        }
      ]
    },
    {
      "name": "brake_br_brakes_0",
      "primitives": [
        {
          "attributes": {
            "NORMAL": 128,
            "POSITION": 127,
            "TEXCOORD_0": 129
          },
          "indices": 130,
          "material": 10,
          "mode": 4
        }
      ]
    },
    {
      "name": "brake_bl_brakes_0",
      "primitives": [
        {
          "attributes": {
            "NORMAL": 132,
            "POSITION": 131,
            "TEXCOORD_0": 133
          },
          "indices": 134,
          "material": 10,
          "mode": 4
        }
      ]
    },
    {
      "name": "disk_fl_disk_chrome_0",
      "primitives": [
        {
          "attributes": {
            "NORMAL": 136,
            "POSITION": 135,
            "TEXCOORD_0": 137
          },
          "indices": 138,
          "material": 3,
          "mode": 4
        }
      ]
    },
    {
      "name": "disk_fr_disk_chrome_0",
      "primitives": [
        {
          "attributes": {
            "NORMAL": 140,
            "POSITION": 139,
            "TEXCOORD_0": 141
          },
          "indices": 142,
          "material": 3,
          "mode": 4
        }
      ]
    },
    {
      "name": "disk_br_disk_chrome_0",
      "primitives": [
        {
          "attributes": {
            "NORMAL": 144,
            "POSITION": 143,
            "TEXCOORD_0": 145
          },
          "indices": 146,
          "material": 3,
          "mode": 4
        }
      ]
    },
    {
      "name": "tyre_fl_tyre_0",
      "primitives": [
        {
          "attributes": {
            "NORMAL": 148,
            "POSITION": 147,
            "TEXCOORD_0": 149
          },
          "indices": 150,
          "material": 9,
          "mode": 4
        }
      ]
    },
    {
      "name": "tyre_fr_tyre_0",
      "primitives": [
        {
          "attributes": {
            "NORMAL": 152,
            "POSITION": 151,
            "TEXCOORD_0": 153
          },
          "indices": 154,
          "material": 9,
          "mode": 4
        }
      ]
    },
    {
      "name": "tyre_br_tyre_0",
      "primitives": [
        {
          "attributes": {
            "NORMAL": 156,
            "POSITION": 155,
            "TEXCOORD_0": 157
          },
          "indices": 158,
          "material": 9,
          "mode": 4
        }
      ]
    },
    {
      "name": "wing_front_r_bodyColor_0",
      "primitives": [
        {
          "attributes": {
            "NORMAL": 160,
            "POSITION": 159,
            "TEXCOORD_0": 161
          },
          "indices": 162,
          "material": 0,
          "mode": 4
        }
      ]
    },
    {
      "name": "wing_front_r_blackBodyColor_0",
      "primitives": [
        {
          "attributes": {
            "NORMAL": 164,
            "POSITION": 163,
            "TEXCOORD_0": 165
          },
          "indices": 166,
          "material": 1,
          "mode": 4
        }
      ]
    },
    {
      "name": "door_front_r_bodyColor_0",
      "primitives": [
        {
          "attributes": {
            "NORMAL": 168,
            "POSITION": 167,
            "TEXCOORD_0": 169
          },
          "indices": 170,
          "material": 0,
          "mode": 4
        }
      ]
    },
    {
      "name": "door_front_r_blackMat_0",
      "primitives": [
        {
          "attributes": {
            "NORMAL": 172,
            "POSITION": 171,
            "TEXCOORD_0": 173
          },
          "indices": 174,
          "material": 2,
          "mode": 4
        }
      ]
    },
    {
      "name": "door_front_r_blackBodyColor_0",
      "primitives": [
        {
          "attributes": {
            "NORMAL": 176,
            "POSITION": 175,
            "TEXCOORD_0": 177
          },
          "indices": 178,
          "material": 1,
          "mode": 4
        }
      ]
    },
    {
      "name": "door_back_r_bodyColor_0",
      "primitives": [
        {
          "attributes": {
            "NORMAL": 180,
            "POSITION": 179,
            "TEXCOORD_0": 181
          },
          "indices": 182,
          "material": 0,
          "mode": 4
        }
      ]
    },
    {
      "name": "door_back_r_blackMat_0",
      "primitives": [
        {
          "attributes": {
            "NORMAL": 184,
            "POSITION": 183,
            "TEXCOORD_0": 185
          },
          "indices": 186,
          "material": 2,
          "mode": 4
        }
      ]
    },
    {
      "name": "glass_side_fr_tonedGlass_0",
      "primitives": [
        {
          "attributes": {
            "NORMAL": 188,
            "POSITION": 187,
            "TEXCOORD_0": 189
          },
          "indices": 190,
          "material": 6,
          "mode": 4
        }
      ]
    },
    {
      "name": "glass_side_br_tonedGlass_0",
      "primitives": [
        {
          "attributes": {
            "NORMAL": 192,
            "POSITION": 191,
            "TEXCOORD_0": 193
          },
          "indices": 194,
          "material": 6,
          "mode": 4
        }
      ]
    }
  ],
  "nodes": [
    {
      "children": [
        1
      ],
      "matrix": [
        1.0,
        0.0,
        0.0,
        0.0,
        0.0,
        2.220446049250313e-16,
        -1.0,
        0.0,
        0.0,
        1.0,
        2.220446049250313e-16,
        0.0,
        0.0,
        0.0,
        0.0,
        1.0
      ],
      "name": "Sketchfab_model"
    },
    {
      "children": [
        2
      ],
      "matrix": [
        0.009999999776482582,
        0.0,
        0.0,
        0.0,
        0.0,
        0.0,
        0.009999999776482582,
        0.0,
        0.0,
        -0.009999999776482582,
        0.0,
        0.0,
        0.0,
        0.0,
        0.0,
        1.0
      ],
      "name": "bmw_m3_export.fbx"
    },
    {
      "children": [
        3
      ],
      "name": "RootNode"
    },
    {
      "children": [
        4,
        8,
        11,
        14,
        16,
        19,
        24,
        26,
        28,
        30,
        32,
        34,
        36,
        38,
        40,
        43,
        45,
        47,
        50,
        52,
        54,
        56,
        58,
        60,
        62,
        64,
        66,
        68,
        70,
        72,
        74,
        77,
        81,
        84,
        86
      ],
      "matrix": [
        100.0,
        0.0,
        0.0,
        0.0,
        0.0,
        -1.629206793918314e-05,
        -99.99999999999868,
        0.0,
        0.0,
        99.99999999999868,
        -1.629206793918314e-05,
        0.0,
        0.0,
        0.0,
        0.0,
        1.0
      ],
      "name": "bmw_m3_g80"
    },
    {
      "children": [
        5,
        6,
        7
      ],
      "matrix": [
        1.0,
        0.0,
        0.0,
        0.0,
        0.0,
        1.0,
        -2.646977960169688e-23,
        0.0,
        0.0,
        2.646977960169688e-23,
        1.0,
        0.0,
        0.0,
        0.0,
        0.0,
        1.0
      ],
      "name": "body"
    },
    {
      "mesh": 0,
      "name": "body_bodyColor_0"
    },
    {
      "mesh": 1,
      "name": "body_blackBodyColor_0"
    },
    {
      "mesh": 2,
      "name": "body_blackMat_0"
    },
    {
      "children": [
        9,
        10
      ],
      "matrix": [
        1.0,
        0.0,
        0.0,
        0.0,
        0.0,
        1.0,
        -2.646977960169688e-23,
        0.0,
        0.0,
        2.646977960169688e-23,
        1.0,
        0.0,
        0.0,
        0.0,
        0.0,
        1.0
      ],
      "name": "bumper_front"
    },
    {
      "mesh": 3,
      "name": "bumper_front_bodyColor_0"
    },
    {
      "mesh": 4,
      "name": "bumper_front_blackBodyColor_0"
    },
    {
      "children": [
        12,
        13
      ],
      "matrix": [
        1.0,
        0.0,
        0.0,
        0.0,
        0.0,
        1.0,
        -2.646977960169688e-23,
        0.0,
        0.0,
        2.646977960169688e-23,
        1.0,
        0.0,
        0.0,
        0.0,
        0.0,
        1.0
      ],
      "name": "bumper_back"
    },
    {
      "mesh": 5,
      "name": "bumper_back_blackBodyColor_0"
    },
    {
      "mesh": 6,
      "name": "bumper_back_bodyColor_0"
    },
    {
      "children": [
        15
      ],
      "matrix": [
        1.0,
        0.0,
        0.0,
        0.0,
        0.0,
        1.0,
        -2.646977960169688e-23,
        0.0,
        0.0,
        2.646977960169688e-23,
        1.0,
        0.0,
        0.0,
        0.0,
        0.0,
        1.0
      ],
      "name": "disk_bl"
    },
    {
      "mesh": 7,
      "name": "disk_bl_disk_chrome_0"
    },
    {
      "children": [
        17,
        18
      ],
      "matrix": [
        1.0,
        0.0,
        0.0,
        0.0,
        0.0,
        1.0,
        -2.646977960169688e-23,
        0.0,
        0.0,
        2.646977960169688e-23,
        1.0,
        0.0,
        0.0,
        0.0,
        0.0,
        1.0
      ],
      "name": "door_back_l"
    },
    {
      "mesh": 8,
      "name": "door_back_l_bodyColor_0"
    },
    {
      "mesh": 9,
      "name": "door_back_l_blackMat_0"
    },
    {
      "children": [
        20,
        21,
        22,
        23
      ],
      "matrix": [
        1.0,
        0.0,
        0.0,
        0.0,
        0.0,
        1.0,
        -2.646977960169688e-23,
        0.0,
        0.0,
        2.646977960169688e-23,
        1.0,
        0.0,
        0.0,
        0.0,
        0.0,
        1.0
      ],
      "name": "door_front_l"
    },
    {
      "mesh": 10,
      "name": "door_front_l_bodyColor_0"
    },
    {
      "mesh": 11,
      "name": "door_front_l_blackMat_0"
    },
    {
      "mesh": 12,
      "name": "door_front_l_blackBodyColor_0"
    },
    {
      "mesh": 13,
      "name": "door_front_l_mirror_0"
    },
    {
      "children": [
        25
      ],
      "matrix": [
        1.0,
        0.0,
        0.0,
        0.0,
        0.0,
        1.0,
        -2.646977960169688e-23,
        0.0,
        0.0,
        2.646977960169688e-23,
        1.0,
        0.0,
        0.0,
        0.0,
        0.0,
        1.0
      ],
      "name": "exhaust"
    },
    {
      "mesh": 14,
      "name": "exhaust_alu_0"
    },
    {
      "children": [
        27
      ],
      "matrix": [
        1.0,
        0.0,
        0.0,
        0.0,
        0.0,
        1.0,
        -2.646977960169688e-23,
        0.0,
        0.0,
        2.646977960169688e-23,
        1.0,
        0.0,
        0.0,
        0.0,
        0.0,
        1.0
      ],
      "name": "glass_back"
    },
    {
      "mesh": 15,
      "name": "glass_back_tonedGlass_0"
    },
    {
      "children": [
        29
      ],
      "matrix": [
        1.0,
        0.0,
        0.0,
        0.0,
        0.0,
        1.0,
        -2.646977960169688e-23,
        0.0,
        0.0,
        2.646977960169688e-23,
        1.0,
        0.0,
        0.0,
        0.0,
        0.0,
        1.0
      ],
      "name": "glass_front"
    },
    {
      "mesh": 16,
      "name": "glass_front_tonedGlass_0"
    },
    {
      "children": [
        31
      ],
      "matrix": [
        1.0,
        0.0,
        0.0,
        0.0,
        0.0,
        1.0,
        -2.646977960169688e-23,
        0.0,
        0.0,
        2.646977960169688e-23,
        1.0,
        0.0,
        0.0,
        0.0,
        0.0,
        1.0
      ],
      "name": "glass_side_bl"
    },
    {
      "mesh": 17,
      "name": "glass_side_bl_tonedGlass_0"
    },
    {
      "children": [
        33
      ],
      "matrix": [
        1.0,
        0.0,
        0.0,
        0.0,
        0.0,
        1.0,
        -2.646977960169688e-23,
        0.0,
        0.0,
        2.646977960169688e-23,
        1.0,
        0.0,
        0.0,
        0.0,
        0.0,
        1.0
      ],
      "name": "glass_side_fl"
    },
    {
      "mesh": 18,
      "name": "glass_side_fl_tonedGlass_0"
    },
    {
      "children": [
        35
      ],
      "matrix": [
        1.0,
        0.0,
        0.0,
        0.0,
        0.0,
        1.0,
        -2.646977960169688e-23,
        0.0,
        0.0,
        2.646977960169688e-23,
        1.0,
        0.0,
        0.0,
        0.0,
        0.0,
        1.0
      ],
      "name": "hood"
    },
    {
      "mesh": 19,
      "name": "hood_bodyColor_0"
    },
    {
      "children": [
        37
      ],
      "matrix": [
        1.0,
        0.0,
        0.0,
        0.0,
        0.0,
        1.0,
        -2.646977960169688e-23,
        0.0,
        0.0,
        2.646977960169688e-23,
        1.0,
        0.0,
        0.0,
        0.0,
        0.0,
        1.0
      ],
      "name": "jabot_line"
    },
    {
      "mesh": 20,
      "name": "jabot_line_blackBodyColor_0"
    },
    {
      "children": [
        39
      ],
      "matrix": [
        1.0,
        0.0,
        0.0,
        0.0,
        0.0,
        1.0,
        -2.646977960169688e-23,
        0.0,
        0.0,
        2.646977960169688e-23,
        1.0,
        0.0,
        0.0,
        0.0,
        0.0,
        1.0
      ],
      "name": "light_back"
    },
    {
      "mesh": 21,
      "name": "light_back_lights_0"
    },
    {
      "children": [
        41,
        42
      ],
      "matrix": [
        1.0,
        0.0,
        0.0,
        0.0,
        0.0,
        1.0,
        -2.646977960169688e-23,
        0.0,
        0.0,
        2.646977960169688e-23,
        1.0,
        0.0,
        0.0,
        0.0,
        0.0,
        1.0
      ],
      "name": "threshold"
    },
    {
      "mesh": 22,
      "name": "threshold_bodyColor_0"
    },
    {
      "mesh": 23,
      "name": "threshold_blackBodyColor_0"
    },
    {
      "children": [
        44
      ],
      "matrix": [
        1.0,
        0.0,
        0.0,
        0.0,
        0.0,
        1.0,
        -2.646977960169688e-23,
        0.0,
        0.0,
        2.646977960169688e-23,
        1.0,
        0.0,
        0.0,
        0.0,
        0.0,
        1.0
      ],
      "name": "trunk"
    },
    {
      "mesh": 24,
      "name": "trunk_bodyColor_0"
    },
    {
      "children": [
        46
      ],
      "matrix": [
        1.0,
        0.0,
        0.0,
        0.0,
        0.0,
        1.0,
        -2.646977960169688e-23,
        0.0,
        0.0,
        2.646977960169688e-23,
        1.0,
        0.0,
        0.0,
        0.0,
        0.0,
        1.0
      ],
      "name": "cover"
    },
    {
      "mesh": 25,
      "name": "cover_blackCover_0"
    },
    {
      "children": [
        48,
        49
      ],
      "matrix": [
        1.0,
        0.0,
        0.0,
        0.0,
        0.0,
        1.0,
        -2.646977960169688e-23,
        0.0,
        0.0,
        2.646977960169688e-23,
        1.0,
        0.0,
        0.0,
        0.0,
        0.0,
        1.0
      ],
      "name": "wing_front_l"
    },
    {
      "mesh": 26,
      "name": "wing_front_l_bodyColor_0"
    },
    {
      "mesh": 27,
      "name": "wing_front_l_blackBodyColor_0"
    },
    {
      "children": [
        51
      ],
      "matrix": [
        1.0,
        0.0,
        0.0,
        0.0,
        0.0,
        1.0,
        -2.646977960169688e-23,
        0.0,
        0.0,
        2.646977960169688e-23,
        1.0,
        0.0,
        0.0,
        0.0,
        0.0,
        1.0
      ],
      "name": "light_front"
    },
    {
      "mesh": 28,
      "name": "light_front_lights_0"
    },
    {
      "children": [
        53
      ],
      "matrix": [
        1.0,
        0.0,
        0.0,
        0.0,
        0.0,
        1.0,
        -2.646977960169688e-23,
        0.0,
        0.0,
        2.646977960169688e-23,
        1.0,
        0.0,
        0.0,
        0.0,
        0.0,
        1.0
      ],
      "name": "tyre_bl"
    },
    {
      "mesh": 29,
      "name": "tyre_bl_tyre_0"
    },
    {
      "children": [
        55
      ],
      "matrix": [
        1.0,
        0.0,
        0.0,
        0.0,
        0.0,
        1.0,
        -2.646977960169688e-23,
        0.0,
        0.0,
        2.646977960169688e-23,
        1.0,
        0.0,
        0.0,
        0.0,
        0.0,
        1.0
      ],
      "name": "brake_fl"
    },
    {
      "mesh": 30,
      "name": "brake_fl_brakes_0"
    },
    {
      "children": [
        57
      ],
      "matrix": [
        1.0,
        0.0,
        0.0,
        0.0,
        0.0,
        1.0,
        -2.646977960169688e-23,
        0.0,
        0.0,
        2.646977960169688e-23,
        1.0,
        0.0,
        0.0,
        0.0,
        0.0,
        1.0
      ],
      "name": "brake_fr"
    },
    {
      "mesh": 31,
      "name": "brake_fr_brakes_0"
    },
    {
      "children": [
        59
      ],
      "matrix": [
        1.0,
        0.0,
        0.0,
        0.0,
        0.0,
        1.0,
        -2.646977960169688e-23,
        0.0,
        0.0,
        2.646977960169688e-23,
        1.0,
        0.0,
        0.0,
        0.0,
        0.0,
        1.0
      ],
      "name": "brake_br"
    },
    {
      "mesh": 32,
      "name": "brake_br_brakes_0"
    },
    {
      "children": [
        61
      ],
      "matrix": [
        1.0,
        0.0,
        0.0,
        0.0,
        0.0,
        1.0,
        -2.646977960169688e-23,
        0.0,
        0.0,
        2.646977960169688e-23,
        1.0,
        0.0,
        0.0,
        0.0,
        0.0,
        1.0
      ],
      "name": "brake_bl"
    },
    {
      "mesh": 33,
      "name": "brake_bl_brakes_0"
    },
    {
      "children": [
        63
      ],
      "matrix": [
        1.0,
        0.0,
        0.0,
        0.0,
        0.0,
        1.0,
        -2.646977960169688e-23,
        0.0,
        0.0,
        2.646977960169688e-23,
        1.0,
        0.0,
        0.0,
        0.0,
        0.0,
        1.0
      ],
      "name": "disk_fl"
    },
    {
      "mesh": 34,
      "name": "disk_fl_disk_chrome_0"
    },
    {
      "children": [
        65
      ],
      "matrix": [
        1.0,
        0.0,
        0.0,
        0.0,
        0.0,
        1.0,
        -2.646977960169688e-23,
        0.0,
        0.0,
        2.646977960169688e-23,
        1.0,
        0.0,
        0.0,
        0.0,
        0.0,
        1.0
      ],
      "name": "disk_fr"
    },
    {
      "mesh": 35,
      "name": "disk_fr_disk_chrome_0"
    },
    {
      "children": [
        67
      ],
      "matrix": [
        1.0,
        0.0,
        0.0,
        0.0,
        0.0,
        1.0,
        -2.646977960169688e-23,
        0.0,
        0.0,
        2.646977960169688e-23,
        1.0,
        0.0,
        0.0,
        0.0,
        0.0,
        1.0
      ],
      "name": "disk_br"
    },
    {
      "mesh": 36,
      "name": "disk_br_disk_chrome_0"
    },
    {
      "children": [
        69
      ],
      "matrix": [
        1.0,
        0.0,
        0.0,
        0.0,
        0.0,
        1.0,
        -2.646977960169688e-23,
        0.0,
        0.0,
        2.646977960169688e-23,
        1.0,
        0.0,
        0.0,
        0.0,
        0.0,
        1.0
      ],
      "name": "tyre_fl"
    },
    {
      "mesh": 37,
      "name": "tyre_fl_tyre_0"
    },
    {
      "children": [
        71
      ],
      "matrix": [
        1.0,
        0.0,
        0.0,
        0.0,
        0.0,
        1.0,
        -2.646977960169688e-23,
        0.0,
        0.0,
        2.646977960169688e-23,
        1.0,
        0.0,
        0.0,
        0.0,
        0.0,
        1.0
      ],
      "name": "tyre_fr"
    },
    {
      "mesh": 38,
      "name": "tyre_fr_tyre_0"
    },
    {
      "children": [
        73
      ],
      "matrix": [
        1.0,
        0.0,
        0.0,
        0.0,
        0.0,
        1.0,
        -2.646977960169688e-23,
        0.0,
        0.0,
        2.646977960169688e-23,
        1.0,
        0.0,
        0.0,
        0.0,
        0.0,
        1.0
      ],
      "name": "tyre_br"
    },
    {
      "mesh": 39,
      "name": "tyre_br_tyre_0"
    },
    {
      "children": [
        75,
        76
      ],
      "matrix": [
        1.0,
        0.0,
        0.0,
        0.0,
        0.0,
        1.0,
        -2.646977960169688e-23,
        0.0,
        0.0,
        2.646977960169688e-23,
        1.0,
        0.0,
        0.0,
        0.0,
        0.0,
        1.0
      ],
      "name": "wing_front_r"
    },
    {
      "mesh": 40,
      "name": "wing_front_r_bodyColor_0"
    },
    {
      "mesh": 41,
      "name": "wing_front_r_blackBodyColor_0"
    },
    {
      "children": [
        78,
        79,
        80
      ],
      "matrix": [
        1.0,
        0.0,
        0.0,
        0.0,
        0.0,
        1.0,
        -2.646977960169688e-23,
        0.0,
        0.0,
        2.646977960169688e-23,
        1.0,
        0.0,
        0.0,
        0.0,
        0.0,
        1.0
      ],
      "name": "door_front_r"
    },
    {
      "mesh": 42,
      "name": "door_front_r_bodyColor_0"
    },
    {
      "mesh": 43,
      "name": "door_front_r_blackMat_0"
    },
    {
      "mesh": 44,
      "name": "door_front_r_blackBodyColor_0"
    },
    {
      "children": [
        82,
        83
      ],
      "matrix": [
        1.0,
        0.0,
        0.0,
        0.0,
        0.0,
        1.0,
        -2.646977960169688e-23,
        0.0,
        0.0,
        2.646977960169688e-23,
        1.0,
        0.0,
        0.0,
        0.0,
        0.0,
        1.0
      ],
      "name": "door_back_r"
    },
    {
      "mesh": 45,
      "name": "door_back_r_bodyColor_0"
    },
    {
      "mesh": 46,
      "name": "door_back_r_blackMat_0"
    },
    {
      "children": [
        85
      ],
      "matrix": [
        1.0,
        0.0,
        0.0,
        0.0,
        0.0,
        1.0,
        -2.646977960169688e-23,
        0.0,
        0.0,
        2.646977960169688e-23,
        1.0,
        0.0,
        0.0,
        0.0,
        0.0,
        1.0
      ],
      "name": "glass_side_fr"
    },
    {
      "mesh": 47,
      "name": "glass_side_fr_tonedGlass_0"
    },
    {
      "children": [
        87
      ],
      "matrix": [
        1.0,
        0.0,
        0.0,
        0.0,
        0.0,
        1.0,
        -2.646977960169688e-23,
        0.0,
        0.0,
        2.646977960169688e-23,
        1.0,
        0.0,
        0.0,
        0.0,
        0.0,
        1.0
      ],
      "name": "glass_side_br"
    },
    {
      "mesh": 48,
      "name": "glass_side_br_tonedGlass_0"
    }
  ],
  "samplers": [
    {
      "magFilter": 9729,
      "minFilter": 9987,
      "wrapS": 10497,
      "wrapT": 10497
    }
  ],
  "scene": 0,
  "scenes": [
    {
      "name": "Sketchfab_Scene",
      "nodes": [
        0
      ]
    }
  ],
  "textures": [
    {
      "sampler": 0,
      "source": 0
    },
    {
      "sampler": 0,
      "source": 1
    },
    {
      "sampler": 0,
      "source": 2
    }
  ]
}
